<svg width="18" height="26" viewBox="0 0 18 26" fill="none" xmlns="http://www.w3.org/2000/svg">
<path d="M3.33044 19.281C3.33044 19.9208 3.7781 20.4431 4.32888 20.4431H5.47029V23.7353C5.47029 24.5693 6.04451 25.2501 6.74998 25.2501C7.45779 25.2501 8.02966 24.572 8.02966 23.7353V20.4403H10.0218V23.7325C10.0218 24.5665 10.5961 25.2474 11.3015 25.2474C12.0094 25.2474 12.5812 24.5693 12.5812 23.7325V20.4403H13.7226C14.2734 20.4403 14.7211 19.9181 14.7211 19.2782V8.47199H3.33044V19.281ZM11.7 2.87199L12.7523 1.09465C12.8133 0.990739 12.7992 0.851286 12.7172 0.782926C12.6351 0.717301 12.5179 0.750114 12.457 0.85402L11.3648 2.70246C10.6453 2.3716 9.84373 2.1884 9.00232 2.1884C8.16091 2.1884 7.35935 2.3716 6.63982 2.70246L5.54763 0.856755C5.48669 0.752848 5.36951 0.717301 5.28748 0.785661C5.20544 0.851286 5.19138 0.988004 5.25232 1.09738L6.30466 2.87472C4.63123 3.78254 3.45935 5.50246 3.30935 7.51222H14.7C14.5453 5.49972 13.3711 3.7798 11.7 2.87199ZM6.59763 5.67472C6.47294 5.67472 6.35104 5.63158 6.24736 5.55076C6.14368 5.46994 6.06287 5.35506 6.01515 5.22066C5.96744 5.08625 5.95495 4.93836 5.97928 4.79568C6.0036 4.653 6.06365 4.52193 6.15182 4.41907C6.24 4.3162 6.35233 4.24614 6.47463 4.21776C6.59693 4.18938 6.7237 4.20395 6.8389 4.25962C6.9541 4.31529 7.05257 4.40957 7.12185 4.53053C7.19112 4.65149 7.2281 4.7937 7.2281 4.93918C7.22767 5.1341 7.1611 5.3209 7.04296 5.45873C6.92482 5.59656 6.76471 5.67422 6.59763 5.67472ZM11.482 5.67472C11.3573 5.67472 11.2354 5.63158 11.1317 5.55076C11.0281 5.46994 10.9472 5.35506 10.8995 5.22066C10.8518 5.08625 10.8393 4.93836 10.8637 4.79568C10.888 4.653 10.948 4.52193 11.0362 4.41907C11.1244 4.3162 11.2367 4.24614 11.359 4.21776C11.4813 4.18938 11.6081 4.20395 11.7233 4.25962C11.8385 4.31529 11.9369 4.40957 12.0062 4.53053C12.0755 4.65149 12.1125 4.7937 12.1125 4.93918C12.112 5.1341 12.0455 5.3209 11.9273 5.45873C11.8092 5.59656 11.6491 5.67422 11.482 5.67472ZM16.7179 8.42824C16.0101 8.42824 15.4383 9.10637 15.4383 9.94308V15.8603C15.4383 16.6943 16.0125 17.3751 16.7179 17.3751C17.4258 17.3751 17.9976 16.697 17.9976 15.8603V9.94035C18 9.10363 17.4281 8.42824 16.7179 8.42824ZM1.28201 8.42824C0.574194 8.42824 0.00231934 9.10637 0.00231934 9.94308V15.8603C0.00231934 16.6943 0.576538 17.3751 1.28201 17.3751C1.98982 17.3751 2.56169 16.697 2.56169 15.8603V9.94035C2.56169 9.10363 1.98748 8.42824 1.28201 8.42824Z" fill="white"/>
</svg>
