<svg width="22" height="26" viewBox="0 0 22 26" fill="none" xmlns="http://www.w3.org/2000/svg">
<path d="M4.38574 19.281C4.38574 19.9208 4.90801 20.4431 5.55059 20.4431H6.88223V23.7353C6.88223 24.5693 7.55215 25.2501 8.3752 25.2501C9.20098 25.2501 9.86816 24.572 9.86816 23.7353V20.4403H12.1924V23.7325C12.1924 24.5665 12.8623 25.2474 13.6854 25.2474C14.5111 25.2474 15.1783 24.5693 15.1783 23.7325V20.4403H16.51C17.1525 20.4403 17.6748 19.9181 17.6748 19.2782V8.47199H4.38574V19.281ZM14.1502 2.87199L15.3779 1.09465C15.449 0.990739 15.4326 0.851286 15.3369 0.782926C15.2412 0.717301 15.1045 0.750114 15.0334 0.85402L13.7592 2.70246C12.9197 2.3716 11.9846 2.1884 11.0029 2.1884C10.0213 2.1884 9.08613 2.3716 8.24668 2.70246L6.97246 0.856755C6.90137 0.752848 6.76465 0.717301 6.66895 0.785661C6.57324 0.851286 6.55684 0.988004 6.62793 1.09738L7.85566 2.87472C5.90332 3.78254 4.53613 5.50246 4.36113 7.51222H17.6502C17.4697 5.49972 16.0998 3.7798 14.1502 2.87199ZM8.19746 5.67472C8.05198 5.67472 7.90977 5.63158 7.78881 5.55076C7.66785 5.46994 7.57358 5.35506 7.5179 5.22066C7.46223 5.08625 7.44767 4.93836 7.47605 4.79568C7.50443 4.653 7.57448 4.52193 7.67735 4.41907C7.78022 4.3162 7.91128 4.24614 8.05396 4.21776C8.19664 4.18938 8.34454 4.20395 8.47894 4.25962C8.61335 4.31529 8.72822 4.40957 8.80905 4.53053C8.88987 4.65149 8.93301 4.7937 8.93301 4.93918C8.9325 5.1341 8.85485 5.3209 8.71701 5.45873C8.57918 5.59656 8.39238 5.67422 8.19746 5.67472ZM13.8959 5.67472C13.7504 5.67472 13.6082 5.63158 13.4872 5.55076C13.3663 5.46994 13.272 5.35506 13.2163 5.22066C13.1607 5.08625 13.1461 4.93836 13.1745 4.79568C13.2029 4.653 13.2729 4.52193 13.3758 4.41907C13.4787 4.3162 13.6097 4.24614 13.7524 4.21776C13.8951 4.18938 14.043 4.20395 14.1774 4.25962C14.3118 4.31529 14.4267 4.40957 14.5075 4.53053C14.5883 4.65149 14.6314 4.7937 14.6314 4.93918C14.6309 5.1341 14.5533 5.3209 14.4155 5.45873C14.2776 5.59656 14.0908 5.67422 13.8959 5.67472ZM20.0045 8.42824C19.1787 8.42824 18.5115 9.10637 18.5115 9.94308V15.8603C18.5115 16.6943 19.1814 17.3751 20.0045 17.3751C20.8303 17.3751 21.4975 16.697 21.4975 15.8603V9.94035C21.5002 9.10363 20.833 8.42824 20.0045 8.42824ZM1.9959 8.42824C1.17012 8.42824 0.50293 9.10637 0.50293 9.94308V15.8603C0.50293 16.6943 1.17285 17.3751 1.9959 17.3751C2.82168 17.3751 3.48887 16.697 3.48887 15.8603V9.94035C3.48887 9.10363 2.81895 8.42824 1.9959 8.42824Z" fill="white"/>
</svg>
