<svg width="36" height="36" viewBox="0 0 39 39" fill="none" xmlns="http://www.w3.org/2000/svg">
<path d="M19.5001 11.689C15.1773 11.689 11.6886 15.1777 11.6886 19.5004C11.6886 23.8232 15.1773 27.3119 19.5001 27.3119C23.8228 27.3119 27.3115 23.8232 27.3115 19.5004C27.3115 15.1777 23.8228 11.689 19.5001 11.689ZM19.5001 24.5773C16.7046 24.5773 14.4232 22.2959 14.4232 19.5004C14.4232 16.7049 16.7046 14.4236 19.5001 14.4236C22.2956 14.4236 24.5769 16.7049 24.5769 19.5004C24.5769 22.2959 22.2956 24.5773 19.5001 24.5773ZM27.6314 9.54859C26.6222 9.54859 25.8071 10.3636 25.8071 11.3729C25.8071 12.3822 26.6222 13.1972 27.6314 13.1972C28.6407 13.1972 29.4558 12.386 29.4558 11.3729C29.4561 11.1332 29.4091 10.8959 29.3175 10.6744C29.2259 10.4529 29.0916 10.2517 28.9221 10.0822C28.7526 9.91279 28.5514 9.77842 28.3299 9.68685C28.1085 9.59527 27.8711 9.54829 27.6314 9.54859ZM34.7269 19.5004C34.7269 17.3981 34.7459 15.3148 34.6278 13.2163C34.5098 10.7788 33.9537 8.61549 32.1713 6.83306C30.3851 5.04684 28.2256 4.49459 25.7881 4.37652C23.6857 4.25846 21.6024 4.2775 19.5039 4.2775C17.4015 4.2775 15.3182 4.25846 13.2197 4.37652C10.7822 4.49459 8.61891 5.05064 6.83649 6.83306C5.05025 8.61929 4.49801 10.7788 4.37994 13.2163C4.26187 15.3186 4.28092 17.4019 4.28092 19.5004C4.28092 21.599 4.26187 23.6861 4.37994 25.7846C4.49801 28.2221 5.05406 30.3854 6.83649 32.1678C8.62272 33.954 10.7822 34.5063 13.2197 34.6244C15.322 34.7424 17.4053 34.7234 19.5039 34.7234C21.6062 34.7234 23.6895 34.7424 25.7881 34.6244C28.2256 34.5063 30.3889 33.9502 32.1713 32.1678C33.9575 30.3816 34.5098 28.2221 34.6278 25.7846C34.7497 23.6861 34.7269 21.6028 34.7269 19.5004ZM31.3753 28.4811C31.0973 29.1743 30.7621 29.6922 30.2251 30.2254C29.6881 30.7624 29.1739 31.0976 28.4808 31.3756C26.4774 32.1716 21.7205 31.9926 19.5001 31.9926C17.2797 31.9926 12.5189 32.1716 10.5156 31.3794C9.82243 31.1014 9.30446 30.7663 8.77126 30.2292C8.23424 29.6922 7.89909 29.1781 7.62106 28.4849C6.82887 26.4778 7.00787 21.7208 7.00787 19.5004C7.00787 17.28 6.82887 12.5193 7.62106 10.516C7.89909 9.82281 8.23424 9.30484 8.77126 8.77164C9.30827 8.23844 9.82243 7.89947 10.5156 7.62144C12.5189 6.82926 17.2797 7.00826 19.5001 7.00826C21.7205 7.00826 26.4812 6.82926 28.4846 7.62144C29.1777 7.89947 29.6957 8.23463 30.2289 8.77164C30.7659 9.30865 31.1011 9.82281 31.3791 10.516C32.1713 12.5193 31.9923 17.28 31.9923 19.5004C31.9923 21.7208 32.1713 26.4778 31.3753 28.4811Z" fill="black"/>
</svg>
