<svg width="39" height="39" viewBox="0 0 39 39" fill="none" xmlns="http://www.w3.org/2000/svg">
<path d="M35.3438 9.68527C34.1783 10.188 32.9101 10.5498 31.6037 10.6907C32.96 9.88498 33.9757 8.61201 34.4602 7.11066C33.1875 7.86777 31.7932 8.39867 30.3393 8.6798C29.7316 8.03016 28.9966 7.51262 28.1802 7.15944C27.3637 6.80626 26.4833 6.625 25.5938 6.62697C21.9946 6.62697 19.1001 9.54435 19.1001 13.1244C19.1001 13.6272 19.161 14.1299 19.2601 14.6136C13.8709 14.3318 9.06447 11.7571 5.86907 7.81525C5.28683 8.80973 4.98172 9.94207 4.98547 11.0945C4.98547 13.3491 6.13186 15.3372 7.88 16.5065C6.84979 16.4659 5.84371 16.1827 4.94358 15.68V15.76C4.94358 18.9173 7.17541 21.5338 10.1499 22.1356C9.59143 22.2806 9.01689 22.3549 8.43987 22.3565C8.01711 22.3565 7.61721 22.3146 7.2135 22.2574C8.03615 24.8321 10.4318 26.7021 13.2844 26.763C11.0526 28.5112 8.25705 29.5395 5.22161 29.5395C4.67698 29.5395 4.17424 29.5204 3.65247 29.4595C6.53176 31.3067 9.94807 32.3731 13.6272 32.3731C25.5709 32.3731 32.1064 22.4783 32.1064 13.89C32.1064 13.6081 32.1064 13.3263 32.0874 13.0445C33.3519 12.119 34.4602 10.9726 35.3438 9.68527Z" fill="black"/>
</svg>
