<svg width="10" height="12" viewBox="0 0 10 12" fill="none" xmlns="http://www.w3.org/2000/svg">
<path d="M1.22917 11.767C1.32353 11.816 1.42948 11.8385 1.53564 11.8319C1.6418 11.8253 1.74417 11.79 1.83175 11.7296L9.41509 6.47963C9.49258 6.42594 9.5559 6.35428 9.59964 6.27077C9.64337 6.18726 9.66622 6.0944 9.66622 6.00013C9.66622 5.90586 9.64337 5.813 9.59964 5.72949C9.5559 5.64598 9.49258 5.57431 9.41509 5.52063L1.83175 0.270629C1.74424 0.210074 1.64183 0.174615 1.5356 0.16809C1.42938 0.161565 1.3234 0.184223 1.22913 0.23361C1.13486 0.282997 1.0559 0.357232 1.00079 0.448277C0.945689 0.539322 0.91654 0.643707 0.916504 0.750129V11.2501C0.916486 11.3566 0.945614 11.4611 1.00073 11.5522C1.05585 11.6433 1.13485 11.7176 1.22917 11.767Z" fill="black"/>
</svg>
