<svg width="20" height="20" viewBox="0 0 20 20" fill="none" xmlns="http://www.w3.org/2000/svg">
<path d="M0.0154057 19.5094C0.0794678 19.8141 0.39353 20.0328 0.710718 19.9922C0.790405 19.9828 1.97791 19.3938 10.281 15.2422C19.3451 10.7094 19.7638 10.4985 19.8279 10.4266C19.9123 10.3313 19.9826 10.1813 19.9935 10.0657C20.0138 9.8813 19.931 9.66255 19.7982 9.5438C19.7435 9.49536 17.442 8.33912 10.2576 4.74694C1.11853 0.178202 0.785717 0.0141392 0.685717 0.00476456C0.415405 -0.0186729 0.176342 0.123514 0.0560303 0.375074C0.0138416 0.467262 0.00915527 0.4907 0.00915527 0.625074C0.0107174 0.748512 0.0169678 0.787575 0.0497799 0.859449C0.0700932 0.906324 1.44666 2.98288 3.10603 5.4735L6.12478 10L3.10603 14.5266C1.44666 17.0172 0.0716553 19.0938 0.0497799 19.1407C0.00759315 19.236 -0.00803185 19.4032 0.0154057 19.5094Z" fill="#0A1045"/>
</svg>
