<svg width="19" height="18" viewBox="0 0 19 18" fill="none" xmlns="http://www.w3.org/2000/svg">
<path d="M4.652 16.4142C4.77332 16.4774 4.90954 16.5062 5.04604 16.4978C5.18253 16.4893 5.31414 16.4438 5.42675 16.3662L15.1768 9.61625C15.2764 9.54722 15.3578 9.45508 15.414 9.34771C15.4703 9.24035 15.4996 9.12095 15.4996 8.99975C15.4996 8.87854 15.4703 8.75915 15.414 8.65178C15.3578 8.54441 15.2764 8.45227 15.1768 8.38325L5.42675 1.63325C5.31423 1.55539 5.18256 1.5098 5.04599 1.50141C4.90941 1.49302 4.77315 1.52215 4.65195 1.58565C4.53074 1.64915 4.42922 1.74459 4.35837 1.86165C4.28752 1.97871 4.25005 2.11292 4.25 2.24975V15.7497C4.24998 15.8867 4.28743 16.0209 4.35829 16.1381C4.42915 16.2552 4.53073 16.3507 4.652 16.4142Z" fill="white"/>
</svg>
