<svg width="39" height="39" viewBox="0 0 39 39" fill="none" xmlns="http://www.w3.org/2000/svg">
<path d="M35.0887 11.7049C34.9036 11.0182 34.5419 10.3919 34.0395 9.88841C33.5372 9.38492 32.9117 9.02179 32.2254 8.83514C29.6807 8.13639 19.5 8.12501 19.5 8.12501C19.5 8.12501 9.32105 8.11364 6.77467 8.78151C6.0888 8.97675 5.46463 9.34502 4.96209 9.85098C4.45955 10.3569 4.09551 10.9836 3.90492 11.6708C3.2338 14.2155 3.2273 19.4935 3.2273 19.4935C3.2273 19.4935 3.2208 24.7975 3.88705 27.3163C4.2608 28.7089 5.35767 29.809 6.75192 30.1844C9.32267 30.8831 19.4757 30.8945 19.4757 30.8945C19.4757 30.8945 29.6563 30.9059 32.201 30.2396C32.8876 30.0533 33.5136 29.691 34.0172 29.1886C34.5208 28.6861 34.8845 28.0609 35.0724 27.3748C35.7452 24.8316 35.75 19.5553 35.75 19.5553C35.75 19.5553 35.7825 14.2496 35.0887 11.7049ZM16.2435 24.3831L16.2517 14.6331L24.713 19.5163L16.2435 24.3831Z" fill="black"/>
</svg>
