<svg width="20" height="20" viewBox="0 0 800 800" fill="none" xmlns="http://www.w3.org/2000/svg">
<path d="M768 72H600V8C600 3.6 596.4 0 592 0H536C531.6 0 528 3.6 528 8V72H272V8C272 3.6 268.4 0 264 0H208C203.6 0 200 3.6 200 8V72H32C14.3 72 0 86.3 0 104V768C0 785.7 14.3 800 32 800H768C785.7 800 800 785.7 800 768V104C800 86.3 785.7 72 768 72ZM728 728H72V348H728V728ZM728 280H72V144H200V192C200 196.4 203.6 200 208 200H264C268.4 200 272 196.4 272 192V144H528V192C528 196.4 531.6 200 536 200H592C596.4 200 600 196.4 600 192V144H728V280Z" fill="black"/>
</svg>
