<svg width="24" height="24" viewBox="0 0 24 24" fill="none" xmlns="http://www.w3.org/2000/svg">
<path d="M11.9999 0.333252C5.67542 0.333252 0.333252 5.67659 0.333252 11.9999C0.333252 18.3233 5.67542 23.6666 11.9999 23.6666C18.3244 23.6666 23.6666 18.3233 23.6666 11.9999C23.6666 5.67659 18.3244 0.333252 11.9999 0.333252ZM11.9999 15.4999C13.1572 15.4999 14.1582 15.1908 14.6751 14.6739L16.3247 16.3248C15.0111 17.6373 13.0511 17.8333 11.9999 17.8333C8.78342 17.8333 6.16658 15.2164 6.16658 11.9999C6.16658 8.78342 8.78342 6.16658 11.9999 6.16658C13.0511 6.16658 15.0122 6.36259 16.3247 7.67509L14.6751 9.32475C14.1594 8.80792 13.1584 8.49992 11.9999 8.49992C10.1029 8.49992 8.49992 10.1029 8.49992 11.9999C8.49992 13.8969 10.1029 15.4999 11.9999 15.4999Z" fill="white"/>
</svg>
