<svg width="30" height="30" viewBox="0 0 39 39" fill="none" xmlns="http://www.w3.org/2000/svg">
<path d="M34.8214 2.4375H4.17857C1.87165 2.4375 0 4.0752 0 6.09375V32.9062C0 34.9248 1.87165 36.5625 4.17857 36.5625H34.8214C37.1283 36.5625 39 34.9248 39 32.9062V6.09375C39 4.0752 37.1283 2.4375 34.8214 2.4375ZM12.5792 24.2988C9.52366 24.2988 7.05134 22.1355 7.05134 19.4619C7.05134 16.7883 9.52366 14.625 12.5792 14.625C15.6348 14.625 18.1071 16.7883 18.1071 19.4619C18.1071 22.1355 15.6348 24.2988 12.5792 24.2988ZM26.4208 24.2988C23.3652 24.2988 20.8929 22.1355 20.8929 19.4619C20.8929 16.7883 23.3652 14.625 26.4208 14.625C29.4763 14.625 31.9487 16.7883 31.9487 19.4619C31.9487 22.1355 29.4763 24.2988 26.4208 24.2988Z" fill="black"/>
</svg>
