<svg width="25" height="24" viewBox="0 0 25 24" fill="#000" xmlns="http://www.w3.org/2000/svg">
<path d="M5.742 13.769L0.5 9.5L12.5 0L24.5 9.5L19.258 13.769C18.048 11.249 15.478 9.5 12.5 9.5C9.523 9.5 6.952 11.248 5.742 13.769ZM12.5 10C10.6435 10 8.86301 10.7375 7.55025 12.0503C6.2375 13.363 5.5 15.1435 5.5 17C5.5 18.8565 6.2375 20.637 7.55025 21.9497C8.86301 23.2625 10.6435 24 12.5 24C14.3565 24 16.137 23.2625 17.4497 21.9497C18.7625 20.637 19.5 18.8565 19.5 17C19.5 15.1435 18.7625 13.363 17.4497 12.0503C16.137 10.7375 14.3565 10 12.5 10Z" fill="#004B76"/>
</svg>
