<svg width="12" height="15" viewBox="0 0 12 15" fill="none" xmlns="http://www.w3.org/2000/svg">
<path d="M1.152 14.9142C1.27332 14.9774 1.40954 15.0062 1.54604 14.9978C1.68253 14.9893 1.81414 14.9438 1.92675 14.8662L11.6768 8.11625C11.7764 8.04722 11.8578 7.95508 11.914 7.84771C11.9703 7.74035 11.9996 7.62095 11.9996 7.49975C11.9996 7.37854 11.9703 7.25915 11.914 7.15178C11.8578 7.04441 11.7764 6.95227 11.6768 6.88325L1.92675 0.133247C1.81423 0.0553915 1.68256 0.00980082 1.54599 0.00141132C1.40941 -0.00697817 1.27315 0.0221533 1.15195 0.0856515C1.03074 0.14915 0.929222 0.244595 0.858373 0.361652C0.787523 0.478709 0.750046 0.612918 0.75 0.749747V14.2497C0.749977 14.3867 0.787427 14.5209 0.85829 14.6381C0.929154 14.7552 1.03073 14.8507 1.152 14.9142Z" fill="#FEF9F8"/>
</svg>
