<svg width="21" height="20" viewBox="0 0 21 20" fill="none" xmlns="http://www.w3.org/2000/svg">
<path d="M3.60975 0.0273438L2.55375 1.08184L4.125 2.65234L5.1795 1.59784L3.60975 0.0273438ZM17.391 0.0273438L15.8197 1.59784L16.875 2.65234L18.4455 1.08259L17.391 0.0273438ZM10.5 0.495344C10.2525 0.498344 10.002 0.512594 9.75 0.543344C9.7425 0.543344 9.735 0.541844 9.7275 0.543344C6.6855 0.892094 4.2645 3.34984 3.84375 6.37834C3.50775 8.81584 4.51275 11.0261 6.1875 12.4496C6.87256 13.0343 7.33592 13.8365 7.5 14.7221V19.2221H9.21C9.471 19.6698 9.94725 19.9721 10.5 19.9721C11.0527 19.9721 11.529 19.6698 11.79 19.2221H13.5V16.2221H13.5705V15.3311C13.5705 14.2316 14.142 13.1231 15.0705 12.2613C16.3125 11.0178 17.25 9.25159 17.25 7.22284C17.25 3.51784 14.2005 0.460844 10.5 0.495344ZM10.5 1.99534C13.3988 1.95484 15.75 4.32784 15.75 7.22284C15.75 8.79334 15.0225 10.1763 14.0153 11.1828L14.0392 11.2068C13.0383 12.1299 12.391 13.3734 12.2092 14.7228H8.92875C8.76375 13.4373 8.2125 12.1931 7.17075 11.3006C5.8455 10.1756 5.05575 8.48059 5.31975 6.56659C5.6475 4.20409 7.5645 2.30434 9.9135 2.04409C10.1074 2.01705 10.3027 2.00103 10.4985 1.99609L10.5 1.99534ZM0 7.22284V8.72284H2.25V7.22284H0ZM18.75 7.22284V8.72284H21V7.22284H18.75ZM4.125 13.2933L2.5545 14.8631L3.60975 15.9183L5.17875 14.3478L4.125 13.2933ZM16.875 13.2933L15.8205 14.3478L17.3903 15.9183L18.4455 14.8631L16.875 13.2933ZM9 16.2228H12V17.7228H9V16.2228Z" fill="#004B76"/>
</svg>
