<svg width="18" height="19" viewBox="0 0 18 19" fill="none" xmlns="http://www.w3.org/2000/svg">
<path d="M5.06445 10.1406C5.51201 10.1406 5.94123 9.96284 6.2577 9.64637C6.57416 9.3299 6.75195 8.90068 6.75195 8.45312C6.75195 8.00557 6.57416 7.57635 6.2577 7.25988C5.94123 6.94341 5.51201 6.76562 5.06445 6.76562C4.6169 6.76562 4.18768 6.94341 3.87121 7.25988C3.55474 7.57635 3.37695 8.00557 3.37695 8.45312C3.37695 8.90068 3.55474 9.3299 3.87121 9.64637C4.18768 9.96284 4.6169 10.1406 5.06445 10.1406Z" fill="black"/>
<path d="M15.752 14.6406C15.752 15.2374 15.5149 15.8097 15.0929 16.2316C14.671 16.6536 14.0987 16.8906 13.502 16.8906H2.25195C1.65522 16.8906 1.08292 16.6536 0.660963 16.2316C0.239006 15.8097 0.00195313 15.2374 0.00195313 14.6406V5.64062C0.00195283 5.04428 0.238697 4.47232 0.660167 4.05043C1.08164 3.62854 1.65336 3.39122 2.2497 3.39062C2.2497 2.79389 2.48676 2.22159 2.90871 1.79963C3.33067 1.37768 3.90297 1.14063 4.4997 1.14062H15.7497C16.3464 1.14063 16.9187 1.37768 17.3407 1.79963C17.7626 2.22159 17.9997 2.79389 17.9997 3.39062V12.3906C17.9997 12.987 17.763 13.5589 17.3415 13.9808C16.92 14.4027 16.3483 14.64 15.752 14.6406ZM15.7497 2.26562H4.4997C4.20133 2.26562 3.91519 2.38415 3.70421 2.59513C3.49323 2.80611 3.3747 3.09226 3.3747 3.39062H13.502C14.0987 3.39062 14.671 3.62768 15.0929 4.04963C15.5149 4.47159 15.752 5.04389 15.752 5.64062V13.5156C16.0499 13.515 16.3355 13.3962 16.546 13.1853C16.7565 12.9744 16.8747 12.6886 16.8747 12.3906V3.39062C16.8747 3.09226 16.7562 2.80611 16.5452 2.59513C16.3342 2.38415 16.0481 2.26562 15.7497 2.26562ZM2.25195 4.51562C1.95358 4.51562 1.66744 4.63415 1.45646 4.84513C1.24548 5.05611 1.12695 5.34226 1.12695 5.64062V14.6406L4.1037 11.9924C4.19565 11.9008 4.31646 11.8438 4.44563 11.8311C4.57481 11.8183 4.70441 11.8507 4.81245 11.9226L7.80495 13.9173L11.9787 9.7435C12.0621 9.66 12.1697 9.60485 12.2862 9.58587C12.4027 9.56689 12.5222 9.58504 12.6278 9.63775L14.627 11.8281V5.64062C14.627 5.34226 14.5084 5.05611 14.2974 4.84513C14.0865 4.63415 13.8003 4.51562 13.502 4.51562H2.25195Z" fill="black"/>
</svg>
