<svg width="17" height="17" viewBox="0 0 17 17" fill="none" xmlns="http://www.w3.org/2000/svg">
<path d="M8.50004 6.37516C9.66879 6.37516 10.625 7.33141 10.625 8.50016C10.625 9.66891 9.66879 10.6252 8.50004 10.6252C7.33129 10.6252 6.37504 9.66891 6.37504 8.50016C6.37504 7.33141 7.33129 6.37516 8.50004 6.37516ZM8.50004 4.9585C6.54504 4.9585 4.95837 6.54516 4.95837 8.50016C4.95837 10.4552 6.54504 12.0418 8.50004 12.0418C10.455 12.0418 12.0417 10.4552 12.0417 8.50016C12.0417 6.54516 10.455 4.9585 8.50004 4.9585ZM1.41671 9.2085H2.83337C3.22296 9.2085 3.54171 8.88975 3.54171 8.50016C3.54171 8.11058 3.22296 7.79183 2.83337 7.79183H1.41671C1.02712 7.79183 0.708374 8.11058 0.708374 8.50016C0.708374 8.88975 1.02712 9.2085 1.41671 9.2085ZM14.1667 9.2085H15.5834C15.973 9.2085 16.2917 8.88975 16.2917 8.50016C16.2917 8.11058 15.973 7.79183 15.5834 7.79183H14.1667C13.7771 7.79183 13.4584 8.11058 13.4584 8.50016C13.4584 8.88975 13.7771 9.2085 14.1667 9.2085ZM7.79171 1.41683V2.8335C7.79171 3.22308 8.11046 3.54183 8.50004 3.54183C8.88962 3.54183 9.20837 3.22308 9.20837 2.8335V1.41683C9.20837 1.02725 8.88962 0.708496 8.50004 0.708496C8.11046 0.708496 7.79171 1.02725 7.79171 1.41683ZM7.79171 14.1668V15.5835C7.79171 15.9731 8.11046 16.2918 8.50004 16.2918C8.88962 16.2918 9.20837 15.9731 9.20837 15.5835V14.1668C9.20837 13.7772 8.88962 13.4585 8.50004 13.4585C8.11046 13.4585 7.79171 13.7772 7.79171 14.1668ZM4.24296 3.24433C4.17743 3.17866 4.09959 3.12657 4.0139 3.09102C3.92821 3.05548 3.83635 3.03718 3.74358 3.03718C3.65081 3.03718 3.55895 3.05548 3.47326 3.09102C3.38758 3.12657 3.30974 3.17866 3.24421 3.24433C3.17854 3.30986 3.12645 3.3877 3.0909 3.47339C3.05536 3.55908 3.03706 3.65094 3.03706 3.7437C3.03706 3.83647 3.05536 3.92833 3.0909 4.01402C3.12645 4.09971 3.17854 4.17755 3.24421 4.24308L3.99504 4.99391C4.27129 5.27016 4.72462 5.27016 4.99379 4.99391C5.26296 4.71766 5.27004 4.26433 4.99379 3.99516L4.24296 3.24433ZM13.005 12.0064C12.9395 11.9407 12.8617 11.8887 12.776 11.8531C12.6903 11.8176 12.5984 11.7993 12.5057 11.7993C12.4129 11.7993 12.321 11.8176 12.2353 11.8531C12.1497 11.8887 12.0718 11.9407 12.0063 12.0064C11.9406 12.0719 11.8885 12.1498 11.853 12.2355C11.8174 12.3212 11.7991 12.413 11.7991 12.5058C11.7991 12.5986 11.8174 12.6904 11.853 12.7761C11.8885 12.8618 11.9406 12.9396 12.0063 13.0052L12.7571 13.756C13.0334 14.0322 13.4867 14.0322 13.7559 13.756C13.8215 13.6905 13.8736 13.6126 13.9092 13.5269C13.9447 13.4412 13.963 13.3494 13.963 13.2566C13.963 13.1639 13.9447 13.072 13.9092 12.9863C13.8736 12.9006 13.8215 12.8228 13.7559 12.7572L13.005 12.0064ZM13.7559 4.24308C13.8215 4.17755 13.8736 4.09971 13.9092 4.01402C13.9447 3.92833 13.963 3.83647 13.963 3.7437C13.963 3.65094 13.9447 3.55908 13.9092 3.47339C13.8736 3.3877 13.8215 3.30986 13.7559 3.24433C13.6903 3.17866 13.6125 3.12657 13.5268 3.09102C13.4411 3.05548 13.3493 3.03718 13.2565 3.03718C13.1637 3.03718 13.0719 3.05548 12.9862 3.09102C12.9005 3.12657 12.8227 3.17866 12.7571 3.24433L12.0063 3.99516C11.73 4.27141 11.73 4.72475 12.0063 4.99391C12.2825 5.26308 12.7359 5.27016 13.005 4.99391L13.7559 4.24308ZM4.99379 13.0052C5.05946 12.9396 5.11155 12.8618 5.1471 12.7761C5.18264 12.6904 5.20094 12.5986 5.20094 12.5058C5.20094 12.413 5.18264 12.3212 5.1471 12.2355C5.11155 12.1498 5.05946 12.0719 4.99379 12.0064C4.92826 11.9407 4.85042 11.8887 4.76473 11.8531C4.67904 11.8176 4.58718 11.7993 4.49442 11.7993C4.40165 11.7993 4.30979 11.8176 4.2241 11.8531C4.13841 11.8887 4.06057 11.9407 3.99504 12.0064L3.24421 12.7572C2.96796 13.0335 2.96796 13.4868 3.24421 13.756C3.52046 14.0252 3.97379 14.0322 4.24296 13.756L4.99379 13.0052Z" fill="#FEF9F8"/>
</svg>
