<svg width="28" height="28" viewBox="0 0 28 28" fill="none" xmlns="http://www.w3.org/2000/svg">
<path d="M15.8013 12.1984C14.8457 11.2432 13.5498 10.7065 12.1986 10.7065C10.8475 10.7065 9.55161 11.2432 8.59598 12.1984L4.99215 15.801C4.03651 16.7567 3.49963 18.0528 3.49963 19.4043C3.49963 20.7558 4.03651 22.0519 4.99215 23.0075C5.94779 23.9632 7.24392 24.5001 8.5954 24.5001C9.94688 24.5001 11.243 23.9632 12.1986 23.0075L14 21.2062" stroke="#0D0D0D" stroke-width="2" stroke-linecap="round" stroke-linejoin="round"/>
<path d="M12.1986 15.8012C13.1542 16.7564 14.4501 17.293 15.8013 17.293C17.1524 17.293 18.4483 16.7564 19.4039 15.8012L23.0078 12.1985C23.9634 11.2429 24.5003 9.94676 24.5003 8.59528C24.5003 7.2438 23.9634 5.94767 23.0078 4.99203C22.0521 4.03639 20.756 3.49951 19.4045 3.49951C18.053 3.49951 16.7569 4.03639 15.8013 4.99203L13.9999 6.79336" stroke="#0D0D0D" stroke-width="2" stroke-linecap="round" stroke-linejoin="round"/>
</svg>
