<svg width="29" height="25" viewBox="0 0 29 25" fill="none" xmlns="http://www.w3.org/2000/svg">
<path d="M0 7.4738V19.6809C0 20.9858 0.50703 22.2372 1.40955 23.16C2.31207 24.0827 3.53615 24.6011 4.8125 24.6011H24.0625C25.3389 24.6011 26.5629 24.0827 27.4655 23.16C28.368 22.2372 28.875 20.9858 28.875 19.6809V4.92021C28.875 3.61529 28.368 2.36382 27.4655 1.4411C26.5629 0.518378 25.3389 0 24.0625 0H4.8125C3.53615 0 2.31207 0.518378 1.40955 1.4411C0.50703 2.36382 0 3.61529 0 4.92021V7.4738ZM4.8125 2.46011H24.0625C24.7007 2.46011 25.3127 2.7193 25.764 3.18066C26.2152 3.64201 26.4688 4.26775 26.4688 4.92021V6.74069L14.4375 13.3633L2.40625 6.74069V4.92021C2.40625 4.26775 2.65976 3.64201 3.11102 3.18066C3.56228 2.7193 4.17432 2.46011 4.8125 2.46011ZM2.40625 9.53537L13.8672 15.8431C14.0425 15.9395 14.2384 15.99 14.4375 15.99C14.6366 15.99 14.8325 15.9395 15.0078 15.8431L26.4688 9.53537V19.6809C26.4688 20.3333 26.2152 20.959 25.764 21.4204C25.3127 21.8818 24.7007 22.141 24.0625 22.141H4.8125C4.17432 22.141 3.56228 21.8818 3.11102 21.4204C2.65976 20.959 2.40625 20.3333 2.40625 19.6809V9.53537Z" fill="black"/>
</svg>
