<svg width="22" height="15" viewBox="0 0 22 15" fill="none" xmlns="http://www.w3.org/2000/svg">
<path d="M20.3917 6.33333H1.60833C0.996218 6.33333 0.5 6.82955 0.5 7.44166V7.55833C0.5 8.17044 0.996218 8.66666 1.60833 8.66666H20.3917C21.0038 8.66666 21.5 8.17044 21.5 7.55833V7.44166C21.5 6.82955 21.0038 6.33333 20.3917 6.33333Z" fill="black"/>
<path d="M20.3917 12.1667H1.60833C0.996218 12.1667 0.5 12.6629 0.5 13.275V13.3917C0.5 14.0038 0.996218 14.5 1.60833 14.5H20.3917C21.0038 14.5 21.5 14.0038 21.5 13.3917V13.275C21.5 12.6629 21.0038 12.1667 20.3917 12.1667Z" fill="black"/>
<path d="M20.3917 0.5H1.60833C0.996218 0.5 0.5 0.996218 0.5 1.60833V1.725C0.5 2.33712 0.996218 2.83333 1.60833 2.83333H20.3917C21.0038 2.83333 21.5 2.33712 21.5 1.725V1.60833C21.5 0.996218 21.0038 0.5 20.3917 0.5Z" fill="black"/>
</svg>
