<svg width="24" height="25" viewBox="0 0 24 25" fill="none" xmlns="http://www.w3.org/2000/svg">
<path d="M12 0C5.37321 0 0 5.53237 0 12.3554C0 19.1785 5.37321 24.7109 12 24.7109C18.6268 24.7109 24 19.1785 24 12.3554C24 5.53237 18.6268 0 12 0ZM17.767 9.31346C17.775 9.44308 17.775 9.57822 17.775 9.7106C17.775 13.7592 14.7804 18.4228 9.30804 18.4228C7.62054 18.4228 6.05625 17.9181 4.73839 17.0494C4.97946 17.077 5.20982 17.088 5.45625 17.088C6.84911 17.088 8.12946 16.6026 9.15 15.7808C7.84286 15.7532 6.74464 14.8706 6.36964 13.6572C6.82768 13.7261 7.24018 13.7261 7.71161 13.602C7.03855 13.4612 6.43359 13.0849 5.99951 12.5369C5.56542 11.9889 5.32898 11.303 5.33036 10.5959V10.5573C5.72411 10.7862 6.1875 10.9268 6.67232 10.9461C6.26476 10.6665 5.93051 10.2876 5.69923 9.84306C5.46794 9.39854 5.34676 8.90212 5.34643 8.39783C5.34643 7.82695 5.49107 7.3057 5.75089 6.8534C6.49795 7.8003 7.43017 8.57473 8.48696 9.12638C9.54375 9.67803 10.7014 9.99454 11.8848 10.0553C11.4643 7.97312 12.975 6.28803 14.7911 6.28803C15.6482 6.28803 16.4196 6.65759 16.9634 7.2533C17.6357 7.12368 18.2786 6.86444 18.8518 6.51694C18.6295 7.22572 18.1634 7.82419 17.5446 8.20202C18.1446 8.13583 18.7232 7.96484 19.2589 7.7249C18.8545 8.33716 18.3482 8.88047 17.767 9.31346Z" fill="white"/>
</svg>
